<svg xmlns="http://www.w3.org/2000/svg" height="1200" width="1600" version="1.1" xmlns:xlink="http://www.w3.org/1999/xlink" xmlns:svgjs="http://svgjs.com/svgjs"><rect fill="#effaff" width="1600" height="1200"></rect><g><path d="M359.66 124.57V155.62C359.66 212.65 405.91 258.9 462.94 258.9H911.57C944.52 258.9 971.13 285.52 971.13 318.47 971.13 351.42 944.52 378.03 911.57 378.03H773.43" stroke="#333333" stroke-width="2" stroke-linecap="round" stroke-linejoin="round" opacity="1" fill="none"></path><path d="M852.64 378.03H1152.36C1201.79 378.03 1241.71 417.95 1241.71 467.38V472.45" stroke="#333333" stroke-width="2" stroke-linecap="round" stroke-linejoin="round" opacity="1" fill="none"></path><path d="M715.14 378.03H615.02" stroke="#333333" stroke-width="2" stroke-linecap="round" stroke-linejoin="round" opacity="1" fill="none"></path><path d="M551.02 378.03H379.93C312.76 378.03 258.27 432.53 258.27 499.69V597.28" stroke="#333333" stroke-width="2" stroke-linecap="round" stroke-linejoin="round" opacity="1" fill="none"></path><path d="M174.63 599.81H533.91C582.07 599.81 620.72 638.46 620.72 686.62" stroke="#333333" stroke-width="2" stroke-linecap="round" stroke-linejoin="round" opacity="1" fill="none"></path><path d="M1090.9 573.2H1376.04C1403.92 573.2 1426.73 550.39 1426.73 522.5 1426.73 494.62 1403.92 471.81 1376.04 471.81H967.33C939.45 471.81 916.64 494.62 916.64 522.5 916.64 550.39 939.45 573.2 967.33 573.2H1023.09" stroke="#333333" stroke-width="2" stroke-linecap="round" stroke-linejoin="round" opacity="1" fill="none"></path></g><g><path d="M515.91 744.54H456L456 280.83 478.9 243.13 1270.74 243.13 1284.16 280.83V744.54H560.1" fill="#ffffff" opacity="1" stroke-width="2" stroke="none"></path><path d="M515.91 744.54H456L456 280.83 478.9 243.13 1270.74 243.13 1284.16 280.83V744.54H560.1" stroke="#333333" stroke-width="2" stroke-linecap="round" stroke-linejoin="round" opacity="1" fill="none"></path><path d="M456 182.77L1284.16 182.77V280.83L456 280.83V182.77Z" fill="#3d84a8" stroke="#333333" stroke-width="2" stroke-linecap="round" stroke-linejoin="round" opacity="1"></path><path d="M456 182.77L560.1 182.77V280.83H456V182.77Z" fill="#3d84a8" stroke="#333333" stroke-width="2" stroke-linecap="round" stroke-linejoin="round" opacity="1"></path><path d="M560.1 182.77H664.2V280.83L560.1 280.83V182.77Z" fill="#3d84a8" stroke="#333333" stroke-width="2" stroke-linecap="round" stroke-linejoin="round" opacity="1"></path><path d="M529.79 211.32L486.3 252.28" stroke="#333333" stroke-width="2" stroke-linecap="round" stroke-linejoin="round" opacity="1" fill="none"></path><path d="M529.79 252.28L486.3 211.32" stroke="#333333" stroke-width="2" stroke-linecap="round" stroke-linejoin="round" opacity="1" fill="none"></path><path d="M638.98 231.8H585.31" stroke="#333333" stroke-width="2" stroke-linecap="round" stroke-linejoin="round" opacity="1" fill="none"></path><path d="M1242.52 320.05L1158.08 320.05" stroke="#333333" stroke-width="2" stroke-linecap="round" stroke-linejoin="round" opacity="1" fill="none"></path><path d="M1208.74 345.98L1158.08 345.98" stroke="#333333" stroke-width="2" stroke-linecap="round" stroke-linejoin="round" opacity="1" fill="none"></path><path d="M1242.52 345.98H1224.71" stroke="#333333" stroke-width="2" stroke-linecap="round" stroke-linejoin="round" opacity="1" fill="none"></path><path d="M1242.52 371.92H1158.08" stroke="#333333" stroke-width="2" stroke-linecap="round" stroke-linejoin="round" opacity="1" fill="none"></path><path d="M1242.52 397.85L1158.08 397.85" stroke="#333333" stroke-width="2" stroke-linecap="round" stroke-linejoin="round" opacity="1" fill="none"></path></g><g><path d="M870.87 672.66C956.01 672.66 1025.05 603.64 1025.05 518.48 1025.05 433.34 956.01 364.3 870.87 364.3 785.73 364.3 716.69 433.34 716.69 518.48 716.69 603.64 785.73 672.66 870.87 672.66Z" fill="#ffffff" stroke="#333333" stroke-width="2" stroke-linecap="round" stroke-linejoin="round" opacity="1"></path><path d="M920.57 477.82C920.57 453.53 900.8 434.05 876.8 434.05 852.52 434.05 833.03 453.81 833.03 477.82 833.03 477.82 842.63 571.28 811.85 603.19H901.93C917.46 603.19 929.89 590.48 929.89 575.24" stroke="#333333" stroke-width="2" stroke-linecap="round" stroke-linejoin="round" opacity="1" fill="none"></path><path d="M811.85 523.84H873.41" stroke="#333333" stroke-width="2" stroke-linecap="round" stroke-linejoin="round" opacity="1" fill="none"></path></g><g><path d="M550.58 362.96H642.33V489.65H515.65V362.96H539.71" fill="#000000" opacity="1" stroke-width="2" stroke="none"></path><path d="M550.58 362.96H642.33V489.65H515.65V362.96H539.71" stroke="#333333" stroke-width="2" stroke-linecap="round" stroke-linejoin="round" opacity="1" fill="none"></path><path d="M578.99 603.21V489.65" stroke="#333333" stroke-width="2" stroke-linecap="round" stroke-linejoin="round" opacity="1" fill="none"></path></g><g><path d="M542.17 431.21L563.81 457.3 615.23 395.26" stroke="#333333" stroke-width="2" stroke-linecap="round" stroke-linejoin="round" opacity="1" fill="none"></path></g><g><path d="M1133.62 241.14C1141.26 252.8 1145.7 266.73 1145.7 281.69 1145.7 322.75 1112.37 356.07 1071.31 356.07 1030.25 356.07 996.92 322.75 996.92 281.69 996.92 240.62 1030.25 207.3 1071.31 207.3 1092.97 207.3 1112.58 216.58 1126.09 231.44" fill="#000000" opacity="1" stroke-width="2" stroke="none"></path><path d="M1133.62 241.14C1141.26 252.8 1145.7 266.73 1145.7 281.69 1145.7 322.75 1112.37 356.07 1071.31 356.07 1030.25 356.07 996.92 322.75 996.92 281.69 996.92 240.62 1030.25 207.3 1071.31 207.3 1092.97 207.3 1112.58 216.58 1126.09 231.44" stroke="#333333" stroke-width="2" stroke-linecap="round" stroke-linejoin="round" opacity="1" fill="none"></path><path d="M1071.31 356.07V417.56C1071.31 434.38 1084.93 448 1101.74 448" stroke="#333333" stroke-width="2" stroke-linecap="round" stroke-linejoin="round" opacity="1" fill="none"></path><path d="M1116.7 281.69L1096.17 288.39 1110.62 304.38 1089.57 299.95 1094.01 320.99 1078.01 306.55 1071.31 327.08 1064.7 306.55 1048.61 320.99 1053.15 299.95 1032 304.38 1046.44 288.39 1025.91 281.69 1046.44 275.08 1032 258.99 1053.15 263.53 1048.61 242.38 1064.7 256.82 1071.31 236.29 1078.01 256.82 1094.01 242.38 1089.57 263.53 1110.62 258.99 1096.17 275.08 1116.7 281.69Z" fill="#ffffff" stroke="#333333" stroke-width="2" stroke-linecap="round" stroke-linejoin="round" opacity="1"></path></g><g><path d="M986.3 1023.06C986.3 1023.35 986.3 1023.35 985.95 1023.35H284.25C283.9 1023.35 283.9 1023.35 283.9 1023.06V939.66C283.9 913.68 309.29 892.61 340.58 892.61H929.62C960.91 892.61 986.3 913.68 986.3 939.66V1023.06 1023.06Z" fill="#fafeff" stroke="#333333" stroke-width="2" stroke-linecap="round" stroke-linejoin="round" opacity="1"></path></g><g><path d="M1239.25 957.07H1370.25C1388.7 957.07 1403.54 971.55 1403.54 990 1403.54 1008.46 1388.7 1023.29 1370.25 1023.29H1239.25C1220.8 1023.29 1205.96 1008.82 1205.96 990 1205.96 972.27 1220.8 957.07 1239.25 957.07Z" fill="#3d84a8" stroke="#333333" stroke-width="2" stroke-linecap="round" stroke-linejoin="round" opacity="1"></path><path d="M1369.88 891.22C1388.34 891.22 1403.17 905.69 1403.17 924.51 1403.17 942.96 1388.34 957.44 1369.88 957.44H1238.89C1220.44 957.44 1205.6 942.96 1205.6 924.51 1205.6 906.05 1220.44 891.22 1238.89 891.22H1342.02" fill="#3d84a8" opacity="1" stroke-width="2" stroke="none"></path><path d="M1369.88 891.22C1388.34 891.22 1403.17 905.69 1403.17 924.51 1403.17 942.96 1388.34 957.44 1369.88 957.44H1238.89C1220.44 957.44 1205.6 942.96 1205.6 924.51 1205.6 906.05 1220.44 891.22 1238.89 891.22H1342.02" stroke="#333333" stroke-width="2" stroke-linecap="round" stroke-linejoin="round" opacity="1" fill="none"></path></g><g><path d="M230.64 1002.38H285.83C297.27 1002.38 306.55 1011.66 306.55 1022.94H210.38C210.07 1011.66 219.35 1002.38 230.64 1002.38Z" fill="#618698" stroke="#333333" stroke-width="2" stroke-linecap="round" stroke-linejoin="round" opacity="1"></path><path d="M258.31 1002.38L258.31 544.13" stroke="#333333" stroke-width="2" stroke-linecap="round" stroke-linejoin="round" opacity="1" fill="none"></path><path d="M207.91 476.41L199.41 544.13H316.91L300.98 436.37H215.64L210.54 462.35" fill="#3d84a8" opacity="1" stroke-width="2" stroke="none"></path><path d="M207.91 476.41L199.41 544.13H316.91L300.98 436.37H215.64L210.54 462.35" stroke="#333333" stroke-width="2" stroke-linecap="round" stroke-linejoin="round" opacity="1" fill="none"></path><path d="M284.44 544.13V595.61" stroke="#333333" stroke-width="2" stroke-linecap="round" stroke-linejoin="round" opacity="1" fill="none"></path></g><g><path d="M1182.46 627.6H1232.65 1292.5C1292.58 627.6 1292.58 627.6 1292.58 627.68V1023.23C1292.58 1023.31 1292.58 1023.31 1292.5 1023.31H1232.65 1182.46 1119.7C1119.62 1023.31 1119.62 1023.31 1119.62 1023.23V627.68C1119.62 627.6 1119.62 627.6 1119.7 627.6H1182.46Z" fill="#618698" stroke="#333333" stroke-width="2" stroke-linecap="round" stroke-linejoin="round" opacity="1"></path><path d="M1182.46 1023.31V736.33" stroke="#333333" stroke-width="2" stroke-linecap="round" stroke-linejoin="round" opacity="1" fill="none"></path><path d="M1092.84 568.9L1292.19 568.9H1366.01C1369.62 568.9 1372.53 571.81 1372.53 575.42V733.64C1372.53 737.25 1369.62 740.17 1366.01 740.17H1345.37L1335.09 740.09 1092.84 740.09C1089.23 740.09 1086.32 737.17 1086.32 733.57V614.48 575.42C1086.32 571.81 1089.23 568.9 1092.84 568.9Z" fill="#000000" stroke="#333333" stroke-width="2" stroke-linecap="round" stroke-linejoin="round" opacity="1"></path><path d="M1148.7 587.08C1148.7 587.01 1148.7 587.01 1148.7 587.08L1110.56 587.01C1110.49 587.01 1110.49 587.01 1110.49 587.08V722.06C1110.49 722.13 1110.49 722.13 1110.56 722.13H1148.62C1148.7 722.13 1148.7 722.13 1148.7 722.06V587.08Z" fill="#fafeff" stroke="#333333" stroke-width="2" stroke-linecap="round" stroke-linejoin="round" opacity="1"></path><path d="M1098.44 722.13V685.46" stroke="#333333" stroke-width="2" stroke-linecap="round" stroke-linejoin="round" opacity="1" fill="none"></path><path d="M1353.89 587.08C1353.89 587.01 1353.89 587.01 1353.81 587.01L1247.23 587.01C1247.15 587.01 1247.15 587.01 1247.15 587.08V663.2C1247.15 663.28 1247.15 663.28 1247.23 663.28H1353.81C1353.89 663.28 1353.89 663.28 1353.89 663.2V587.08Z" fill="#fafeff" stroke="#333333" stroke-width="2" stroke-linecap="round" stroke-linejoin="round" opacity="1"></path><path d="M1300.56 587.01V663.2" stroke="#333333" stroke-width="2" stroke-linecap="round" stroke-linejoin="round" opacity="1" fill="none"></path><path d="M1327.26 587.01V663.2" stroke="#333333" stroke-width="2" stroke-linecap="round" stroke-linejoin="round" opacity="1" fill="none"></path><path d="M1327.26 611.64H1353.89" stroke="#333333" stroke-width="2" stroke-linecap="round" stroke-linejoin="round" opacity="1" fill="none"></path><path d="M1295.11 611.64H1303.93 1321.04" stroke="#333333" stroke-width="2" stroke-linecap="round" stroke-linejoin="round" opacity="1" fill="none"></path><path d="M1247.23 611.64L1288.51 611.64" stroke="#333333" stroke-width="2" stroke-linecap="round" stroke-linejoin="round" opacity="1" fill="none"></path><path d="M1247.23 638.57H1353.89" stroke="#333333" stroke-width="2" stroke-linecap="round" stroke-linejoin="round" opacity="1" fill="none"></path><path d="M1257.28 674.79C1257.28 674.71 1257.28 674.71 1257.2 674.71H1247.23C1247.15 674.71 1247.15 674.71 1247.15 674.79V721.98C1247.15 722.06 1247.15 722.06 1247.23 722.06H1257.2C1257.28 722.06 1257.28 722.06 1257.28 721.98V674.79Z" fill="#fafeff" stroke="#333333" stroke-width="2" stroke-linecap="round" stroke-linejoin="round" opacity="1"></path><path d="M1327.26 674.79C1327.26 674.71 1327.26 674.71 1327.18 674.71H1300.63C1300.56 674.71 1300.56 674.71 1300.56 674.79V721.98C1300.56 722.06 1300.56 722.06 1300.63 722.06H1327.18C1327.26 722.06 1327.26 722.06 1327.26 721.98V674.79Z" fill="#618698" stroke="#333333" stroke-width="2" stroke-linecap="round" stroke-linejoin="round" opacity="1"></path><path d="M1353.89 674.79C1353.89 674.71 1353.89 674.71 1353.81 674.71H1327.26C1327.18 674.71 1327.18 674.71 1327.18 674.79V698.35C1327.18 698.42 1327.18 698.42 1327.26 698.42H1353.81C1353.89 698.42 1353.89 698.42 1353.89 698.35V674.79Z" fill="#fafeff" stroke="#333333" stroke-width="2" stroke-linecap="round" stroke-linejoin="round" opacity="1"></path><path d="M1353.89 698.5C1353.89 698.42 1353.89 698.42 1353.81 698.42H1327.26C1327.18 698.42 1327.18 698.42 1327.18 698.5V722.06C1327.18 722.13 1327.18 722.13 1327.26 722.13H1353.81C1353.89 722.13 1353.89 722.13 1353.89 722.06V698.5Z" fill="#fafeff" stroke="#333333" stroke-width="2" stroke-linecap="round" stroke-linejoin="round" opacity="1"></path><path d="M1179.93 722.13C1174.42 722.13 1169.96 717.67 1169.96 712.16 1169.96 706.65 1174.42 702.18 1179.93 702.18 1185.44 702.18 1189.91 706.65 1189.91 712.16 1189.91 717.67 1185.44 722.13 1179.93 722.13Z" fill="#3d84a8" stroke="#333333" stroke-width="2" stroke-linecap="round" stroke-linejoin="round" opacity="1"></path><path d="M1212.85 722.13C1207.34 722.13 1202.87 717.67 1202.87 712.16 1202.87 706.65 1207.34 702.18 1212.85 702.18 1218.36 702.18 1222.82 706.65 1222.82 712.16 1222.82 717.67 1218.36 722.13 1212.85 722.13Z" fill="#3d84a8" stroke="#333333" stroke-width="2" stroke-linecap="round" stroke-linejoin="round" opacity="1"></path><path d="M1179.93 693.36C1174.42 693.36 1169.96 688.89 1169.96 683.38 1169.96 677.87 1174.42 673.41 1179.93 673.41 1185.44 673.41 1189.91 677.87 1189.91 683.38 1189.91 688.89 1185.44 693.36 1179.93 693.36Z" fill="#3d84a8" stroke="#333333" stroke-width="2" stroke-linecap="round" stroke-linejoin="round" opacity="1"></path><path d="M1212.85 693.36C1207.34 693.36 1202.87 688.89 1202.87 683.38 1202.87 677.87 1207.34 673.41 1212.85 673.41 1218.36 673.41 1222.82 677.87 1222.82 683.38 1222.82 688.89 1218.36 693.36 1212.85 693.36Z" fill="#3d84a8" stroke="#333333" stroke-width="2" stroke-linecap="round" stroke-linejoin="round" opacity="1"></path><path d="M1179.93 664.51C1174.42 664.51 1169.96 660.04 1169.96 654.53 1169.96 649.02 1174.42 644.56 1179.93 644.56 1185.44 644.56 1189.91 649.02 1189.91 654.53 1189.91 660.04 1185.44 664.51 1179.93 664.51Z" fill="#3d84a8" stroke="#333333" stroke-width="2" stroke-linecap="round" stroke-linejoin="round" opacity="1"></path><path d="M1212.85 664.51C1207.34 664.51 1202.87 660.04 1202.87 654.53 1202.87 649.02 1207.34 644.56 1212.85 644.56 1218.36 644.56 1222.82 649.02 1222.82 654.53 1222.82 660.04 1218.36 664.51 1212.85 664.51Z" fill="#3d84a8" stroke="#333333" stroke-width="2" stroke-linecap="round" stroke-linejoin="round" opacity="1"></path><path d="M1179.93 635.73C1174.42 635.73 1169.96 631.27 1169.96 625.76 1169.96 620.25 1174.42 615.78 1179.93 615.78 1185.44 615.78 1189.91 620.25 1189.91 625.76 1189.91 631.27 1185.44 635.73 1179.93 635.73Z" fill="#3d84a8" stroke="#333333" stroke-width="2" stroke-linecap="round" stroke-linejoin="round" opacity="1"></path><path d="M1212.85 635.73C1207.34 635.73 1202.87 631.27 1202.87 625.76 1202.87 620.25 1207.34 615.78 1212.85 615.78 1218.36 615.78 1222.82 620.25 1222.82 625.76 1222.82 631.27 1218.36 635.73 1212.85 635.73Z" fill="#3d84a8" stroke="#333333" stroke-width="2" stroke-linecap="round" stroke-linejoin="round" opacity="1"></path><path d="M1179.93 606.88C1174.42 606.88 1169.96 602.41 1169.96 596.91 1169.96 591.4 1174.42 586.93 1179.93 586.93 1185.44 586.93 1189.91 591.4 1189.91 596.91 1189.91 602.41 1185.44 606.88 1179.93 606.88Z" fill="#fafeff" stroke="#333333" stroke-width="2" stroke-linecap="round" stroke-linejoin="round" opacity="1"></path><path d="M1212.85 606.88C1207.34 606.88 1202.87 602.41 1202.87 596.91 1202.87 591.4 1207.34 586.93 1212.85 586.93 1218.36 586.93 1222.82 591.4 1222.82 596.91 1222.82 602.41 1218.36 606.88 1212.85 606.88Z" fill="#fafeff" stroke="#333333" stroke-width="2" stroke-linecap="round" stroke-linejoin="round" opacity="1"></path><path d="M1094.99 534.29C1095.06 534.29 1095.06 534.29 1094.99 534.29L1095.06 473.29C1095.06 452.34 1112.02 435.38 1132.97 435.38L1258.2 435.61C1278.23 435.61 1295.57 449.58 1299.87 469.14L1317.67 550.94C1320.58 564.45 1319.66 578.41 1314.98 591.38L1279.38 689.83C1279.38 689.91 1279.3 689.91 1279.3 689.91L1214 668.57C1214 668.57 1214 668.57 1213.92 668.5 1213.85 668.42 1213.92 668.42 1213.92 668.42L1247.92 568.97V568.9C1247.92 568.9 1247.92 568.9 1247.84 568.9H1092.84C1089.23 568.9 1086.32 571.81 1086.32 575.42V614.48C1086.32 614.48 1086.32 614.55 1086.24 614.55L1029 642.41H1028.92L999.3 582.63V582.56L1094.99 534.29Z" fill="#ffffff" stroke="#333333" stroke-width="2" stroke-linecap="round" stroke-linejoin="round" opacity="1"></path><path d="M1119.62 516.87V504.36" stroke="#333333" stroke-width="2" stroke-linecap="round" stroke-linejoin="round" opacity="1" fill="none"></path><path d="M1119.62 569.2V525.16" stroke="#333333" stroke-width="2" stroke-linecap="round" stroke-linejoin="round" opacity="1" fill="none"></path><path d="M1182.54 502.91C1182.54 502.91 1182.46 502.91 1182.54 502.91 1182.46 502.91 1182.39 502.91 1182.39 502.91L1155.3 458.56V458.48L1155.38 458.4H1209.63C1209.63 458.4 1209.7 458.4 1209.7 458.48V458.56L1182.54 502.91Z" fill="#fafeff" stroke="#333333" stroke-width="2" stroke-linecap="round" stroke-linejoin="round" opacity="1"></path><path d="M1182.46 502.98V569.2" stroke="#333333" stroke-width="2" stroke-linecap="round" stroke-linejoin="round" opacity="1" fill="none"></path><path d="M1192.59 528.15C1190.9 528.15 1189.52 526.78 1189.52 525.08 1189.52 523.39 1190.9 522.01 1192.59 522.01 1194.29 522.01 1195.66 523.39 1195.66 525.08 1195.66 526.78 1194.29 528.15 1192.59 528.15Z" fill="#618698" stroke="#333333" stroke-width="2" stroke-linecap="round" stroke-linejoin="round" opacity="1"></path><path d="M1192.59 541.89C1190.9 541.89 1189.52 540.51 1189.52 538.82 1189.52 537.12 1190.9 535.75 1192.59 535.75 1194.29 535.75 1195.66 537.12 1195.66 538.82 1195.66 540.51 1194.29 541.89 1192.59 541.89Z" fill="#618698" stroke="#333333" stroke-width="2" stroke-linecap="round" stroke-linejoin="round" opacity="1"></path><path d="M1224.51 539.28C1224.51 553.09 1235.72 564.29 1249.53 564.29L1247.92 568.9" stroke="#333333" stroke-width="2" stroke-linecap="round" stroke-linejoin="round" opacity="1" fill="none"></path><path d="M1140.41 396.4C1140.41 396.4 1152.61 377.14 1169.8 377.14 1218.22 377.14 1225.66 396.09 1225.74 396.4 1225.89 396.86 1237.33 439.06 1213.39 464.23 1205.79 468.61 1196.89 471.06 1187.45 471.06 1164.28 471.06 1144.63 455.95 1137.8 435.07 1136.12 430.01 1135.27 424.56 1135.27 418.88 1135.35 410.83 1137.19 403.15 1140.41 396.4Z" fill="#ffffff" stroke="#333333" stroke-width="2" stroke-linecap="round" stroke-linejoin="round" opacity="1"></path><path d="M1212.7 415.89V411.44 396.48C1212.7 396.4 1212.7 396.4 1212.62 396.4H1183.69C1177.17 396.4 1171.72 391.87 1170.26 385.74 1170.19 385.35 1169.65 385.35 1169.57 385.74 1168.19 391.87 1162.74 396.4 1156.14 396.4H1140.49C1148.85 378.83 1166.81 366.63 1187.6 366.63 1208.4 366.63 1226.35 378.75 1234.72 396.4 1237.94 403.23 1239.78 410.83 1239.78 418.88 1239.78 419.42 1239.71 419.88 1239.71 420.42 1239.78 420.42 1239.78 420.42 1239.78 420.5V430.85C1239.78 430.93 1239.78 430.93 1239.86 430.93 1255.51 431.01 1267.94 444.28 1266.72 460.09 1265.72 473.29 1255.05 483.95 1241.85 484.87 1228.12 485.87 1216.46 476.66 1213.46 464.16 1213 462.16 1212.7 460.09 1212.7 457.94V415.89Z" fill="#618698" stroke="#333333" stroke-width="2" stroke-linecap="round" stroke-linejoin="round" opacity="1"></path><path d="M1160.67 414.51V431.93" stroke="#333333" stroke-width="2" stroke-linecap="round" stroke-linejoin="round" opacity="1" fill="none"></path><path d="M1174.64 431.93C1174.64 435.77 1171.49 438.91 1167.65 438.91 1163.82 438.91 1160.67 435.77 1160.67 431.93" stroke="#333333" stroke-width="2" stroke-linecap="round" stroke-linejoin="round" opacity="1" fill="none"></path></g><g><path d="M673.32 843.75H495.32V950.86H673.32V843.75Z" fill="#ffffff" stroke="#333333" stroke-width="2" stroke-linecap="round" stroke-linejoin="round" opacity="1"></path><path d="M584.32 860.05L668.66 884.37C683.67 888.77 699.19 877.38 699.19 861.6V805.72C699.19 770.27 676.94 738.45 643.57 726.55L631.15 721.89 534.13 722.66 524.3 726.03C490.92 738.19 468.67 769.75 468.67 805.2V861.08C468.67 877.12 483.93 888.25 499.46 884.11L584.32 860.05Z" fill="#ffffff" stroke="#333333" stroke-width="2" stroke-linecap="round" stroke-linejoin="round" opacity="1"></path><path d="M629.34 728.1H609.16V749.83H629.34V728.1Z" fill="#231f20" stroke="#333333" stroke-width="2" stroke-linecap="round" stroke-linejoin="round" opacity="1"></path><path d="M629.34 685.41C632.44 691.88 634 698.86 634 706.62 634 712.06 633.22 716.97 631.67 722.15 624.94 742.07 606.31 756.3 584.32 756.3 563.88 756.3 546.03 743.62 538.53 725.77V700.16L554.83 679.97C560 673.77 567.76 670.14 575.52 670.14H597.52C606.05 670.14 614.33 673.25 620.8 678.42L629.34 685.41Z" fill="#ffffff" stroke="#333333" stroke-width="2" stroke-linecap="round" stroke-linejoin="round" opacity="1"></path><path d="M609.93 696.53V714.39" stroke="#333333" stroke-width="2" stroke-linecap="round" stroke-linejoin="round" opacity="1" fill="none"></path><path d="M596.74 714.39C596.74 717.75 599.84 720.85 603.21 720.85 606.57 720.85 609.68 717.75 609.68 714.39" stroke="#333333" stroke-width="2" stroke-linecap="round" stroke-linejoin="round" opacity="1" fill="none"></path><path d="M584.32 656.95C564.4 656.95 547.58 668.59 539.3 685.15 536.2 691.88 534.64 698.6 534.64 706.37 534.64 706.88 534.64 707.66 534.64 707.92V749.57H560.26V703.78 699.64 685.15H587.94C595.19 685.15 601.14 679.46 601.14 671.95 601.14 679.2 606.83 685.15 614.33 685.15H629.34C621.06 668.59 603.98 656.95 584.32 656.95Z" fill="#618698" stroke="#333333" stroke-width="2" stroke-linecap="round" stroke-linejoin="round" opacity="1"></path><path d="M518.35 797.44V823.83L584.32 803.39" stroke="#333333" stroke-width="2" stroke-linecap="round" stroke-linejoin="round" opacity="1" fill="none"></path><path d="M650.3 797.44V823.83L584.32 803.39V860.05" stroke="#333333" stroke-width="2" stroke-linecap="round" stroke-linejoin="round" opacity="1" fill="none"></path><path d="M760.51 1023.82H408.13C382.51 1023.82 361.56 1002.86 361.56 977.25 361.56 951.64 382.51 930.68 408.13 930.68H760.51C786.13 930.68 807.08 951.64 807.08 977.25 807.08 1002.86 786.38 1023.82 760.51 1023.82Z" fill="#618698" stroke="#333333" stroke-width="2" stroke-linecap="round" stroke-linejoin="round" opacity="1"></path><path d="M584.32 968.2V1012.18" stroke="#333333" stroke-width="2" stroke-linecap="round" stroke-linejoin="round" opacity="1" fill="none"></path><path d="M584.32 931.97V954.22" stroke="#333333" stroke-width="2" stroke-linecap="round" stroke-linejoin="round" opacity="1" fill="none"></path></g><g><path d="M438.09 345.86C438.09 354.48 444.99 361.38 453.62 361.38 462.24 361.38 469.15 354.48 469.15 345.86L469.15 199.45C486.15 193.29 497.98 177.02 497.98 158.04 497.98 139.06 486.15 123.04 469.15 116.63L469.15 158.78 454.36 172.58 438.34 158.78 438.34 116.63C421.33 122.79 409.5 139.06 409.5 158.04 409.5 176.77 421.33 193.04 438.34 199.45L438.34 330.57" fill="#ffffff" opacity="1" stroke-width="2" stroke="none"></path><path d="M438.09 345.86C438.09 354.48 444.99 361.38 453.62 361.38 462.24 361.38 469.15 354.48 469.15 345.86L469.15 199.45C486.15 193.29 497.98 177.02 497.98 158.04 497.98 139.06 486.15 123.04 469.15 116.63L469.15 158.78 454.36 172.58 438.34 158.78 438.34 116.63C421.33 122.79 409.5 139.06 409.5 158.04 409.5 176.77 421.33 193.04 438.34 199.45L438.34 330.57" stroke="#333333" stroke-width="2" stroke-linecap="round" stroke-linejoin="round" opacity="1" fill="none"></path></g></svg>