<?xml version="1.0" standalone="no"?>
<!DOCTYPE svg PUBLIC "-//W3C//DTD SVG 20010904//EN"
 "http://www.w3.org/TR/2001/REC-SVG-20010904/DTD/svg10.dtd">
<svg version="1.0" xmlns="http://www.w3.org/2000/svg"
 width="500.000000pt" height="500.000000pt" viewBox="0 0 500.000000 500.000000"
 preserveAspectRatio="xMidYMid meet">

<g transform="translate(0.000000,500.000000) scale(0.100000,-0.100000)"
fill="#000000" stroke="none">
<path d="M2430 3174 c1 -15 28 -46 33 -37 2 4 -4 17 -14 27 -11 11 -19 15 -19
10z"/>
<path d="M2471 3168 c0 -7 4 -22 9 -33 7 -17 9 -15 9 13 1 17 -3 32 -9 32 -5
0 -10 -6 -9 -12z"/>
<path d="M2543 3156 c4 -10 7 -22 7 -27 0 -5 4 -9 9 -9 12 0 2 38 -12 47 -7 4
-8 0 -4 -11z"/>
<path d="M2327 3135 c6 -32 11 -41 17 -34 2 2 -2 18 -10 34 l-13 30 6 -30z"/>
<path d="M2360 3156 c0 -3 9 -10 20 -16 11 -6 20 -8 20 -6 0 3 -9 10 -20 16
-11 6 -20 8 -20 6z"/>
<path d="M2605 3145 c-5 -11 -10 -24 -13 -29 -3 -5 2 -7 11 -3 9 3 17 2 19 -3
2 -5 8 2 15 15 6 14 7 25 2 25 -5 0 -9 -6 -10 -12 0 -7 -4 -4 -9 7 l-8 20 -7
-20z"/>
<path d="M2279 3123 c6 -12 16 -25 21 -28 17 -11 11 5 -11 28 l-21 22 11 -22z"/>
<path d="M2671 3114 c-6 -15 -9 -29 -6 -32 3 -3 5 1 6 9 0 8 4 6 9 -6 7 -16 9
-13 9 18 1 44 -2 46 -18 11z"/>
<path d="M2250 3117 c0 -7 7 -22 15 -33 13 -17 14 -16 4 14 -11 33 -19 41 -19
19z"/>
<path d="M2430 3081 c-15 -4 5 -7 50 -7 45 0 65 3 50 7 -14 4 -36 7 -50 7 -14
0 -36 -3 -50 -7z"/>
<path d="M2335 3030 c-3 -6 1 -7 9 -4 18 7 21 14 7 14 -6 0 -13 -4 -16 -10z"/>
<path d="M2515 2689 c-16 -5 -46 -7 -65 -4 -32 5 -33 4 -10 -5 26 -12 96 -4
106 11 3 5 4 9 2 8 -2 0 -16 -5 -33 -10z"/>
<path d="M2295 2630 c-3 -5 -1 -10 4 -10 6 0 11 5 11 10 0 6 -2 10 -4 10 -3 0
-8 -4 -11 -10z"/>
</g>
</svg>
